<?xml version="1.0"?>
<svg width="640" height="480" xmlns="http://www.w3.org/2000/svg" xmlns:svg="http://www.w3.org/2000/svg">
 <!-- Created with SVG-edit - https://github.com/SVG-Edit/svgedit-->

 <g class="layer">
  <title>Layer 1</title>
  <polygon cx="51.5" cy="41.5" fill="#ff0000" id="svg_24" opacity="0.25" orient="point" point="5" points="51.5,2.0971784591674805 63.35041427612305,36.18930435180664 99.43592834472656,36.9246711730957 70.67436981201172,58.730133056640625 81.12603759765625,93.27674102783203 51.5,72.6611328125 21.873964309692383,93.27674102783203 32.325626373291016,58.730133056640625 3.564067840576172,36.9246711730957 39.64958572387695,36.18930435180664 51.5,2.0971784591674805 63.35041427612305,36.18930435180664 " r="50.402822" r2="20.161129" shape="star" stroke="#ff0a0a" stroke-width="5" strokeWidth="5" strokecolor="#ff0a0a"/>
  <polygon cx="51.5" cy="41.5" fill="#7f0000" id="svg_26" orient="point" point="5" points="139.50000065495905,70.93762725358907 150.61446804096622,103.13974696916044 184.45897976307887,103.83434427197959 157.48359684424312,124.43094277804663 167.28619185015768,157.06235214696548 139.50000065495905,137.58964671465523 111.71380945976041,157.06235214696548 121.51640446567497,124.43094277804663 94.54101586429404,103.83434427197959 128.38554463404225,103.13974696916044 139.50000065495905,70.93762725358907 150.61446804096622,103.13974696916044 " r="50.402822" r2="20.161129" shape="star" stroke="#ff0a0a" stroke-width="5" strokeWidth="5" strokecolor="#ff0a0a" transform="rotate(-0.525627 139.5 114)"/>
  <polygon cx="51.5" cy="41.5" fill="none" id="svg_27" orient="point" point="5" points="229.59326171875,11.3101806640625 240.70773315429688,43.512298583984375 274.55224609375,44.2069091796875 247.57684326171875,64.80351257324219 257.37945556640625,97.43490600585938 229.59326171875,77.96218872070312 201.80706787109375,97.43490600585938 211.60968017578125,64.80351257324219 184.63427734375,44.2069091796875 218.47882080078125,43.512298583984375 229.59326171875,11.3101806640625 240.70773315429688,43.512298583984375 " r="50.402822" r2="20.161129" shape="star" stroke="#ff0a0a" stroke-width="5" strokeWidth="5" strokecolor="#ff0a0a" transform="rotate(-0.525627 229.593 54.3725)"/>
  <text fill="#000000" font-family="serif" font-size="24" id="svg_29" stroke="#ff0a0a" stroke-dasharray="null" stroke-linecap="null" stroke-linejoin="null" stroke-width="0" text-anchor="middle" x="143.5" xml:space="preserve" y="118.5"/>
  <text fill="#000000" font-family="serif" font-size="24" id="svg_30" stroke="#ff0a0a" stroke-dasharray="null" stroke-linecap="null" stroke-linejoin="null" stroke-width="0" text-anchor="middle" x="47.5" xml:space="preserve" y="55.5">Y</text>
  <text fill="#000000" font-family="serif" font-size="24" id="svg_31" stroke="#ff0a0a" stroke-dasharray="null" stroke-linecap="null" stroke-linejoin="null" stroke-width="0" text-anchor="middle" x="138.5" xml:space="preserve" y="118.5">G</text>
  <text fill="#000000" font-family="serif" font-size="24" id="svg_32" stroke="#ff0a0a" stroke-dasharray="null" stroke-linecap="null" stroke-linejoin="null" stroke-width="0" text-anchor="middle" x="225.5" xml:space="preserve" y="58.5">E</text>
  <polygon cx="80.5" cy="236.5" fill="#e2e222" id="svg_35" opacity="0.25" orient="point" point="5" points="80.5,236.5 80.5,236.5 80.5,236.5 80.5,236.5 80.5,236.5 80.5,236.5 80.5,236.5 80.5,236.5 80.5,236.5 80.5,236.5 80.5,236.5 80.5,236.5 " r="0" r2="0" shape="star" stroke="#c40909" stroke-width="5" strokeWidth="5" strokecolor="#c40909"/>
  <polygon cx="70.5" cy="60.5" fill="#e2e222" id="svg_36" opacity="0.25" orient="point" point="5" r="0" r2="0" shape="star" strokeWidth="5" strokecolor="#c40909"/>
 </g>
</svg>